PathFileType	4	(X/Y/Z)	C:\Users\WrightLab\Desktop\Jo\P2_Trial31.trc
DataRate	CameraRate	NumFrames	NumMarkers	Units	OrigDataRate	OrigDataStartFrame	OrigNumFrames
100.00	100.00	       18	19	mm	100.00	407	       812
Frame#	Time	Headset_Front			Headset_Back			Headset_Left			Headset_Right			Left_Shoulder			Right_Shoulder			Sternum			C7			Left Elbow			Right Elbow			Left Wrist			Right Wrist			Left ASIS			Right ASIS			S2			Left Knee			Right Knee			Left Ankle			Right Ankle			
		X1	Y1	Z1	X2	Y2	Z2	X3	Y3	Z3	X4	Y4	Z4	X5	Y5	Z5	X6	Y6	Z6	X7	Y7	Z7	X8	Y8	Z8	X9	Y9	Z9	X10	Y10	Z10	X11	Y11	Z11	X12	Y12	Z12	X13	Y13	Z13	X14	Y14	Z14	X15	Y15	Z15	X16	Y16	Z16	X17	Y17	Z17	X18	Y18	Z18	X19	Y19	Z19	

407	4.060	50.23123	1496.59375	795.06885	-62.06459	1697.38013	590.58752	74.48569	1585.34192	607.59229	-72.96075	1581.64844	786.81818	15.90327	1444.38916	497.75024	-209.09549	1461.82922	737.08160	-59.04284	1333.02319	665.06702	-188.51569	1456.54443	550.98718	125.57260	1102.36707	427.86914	-318.51144	1143.36877	787.41766	182.52364	867.40643	431.23492	-285.08481	917.97827	879.94775	-20.87464	1049.29724	633.37457	-120.38863	1018.20471	718.64502	-227.93559	964.30188	468.86557	43.85855	475.25580	472.17532	-118.78491	588.84106	749.72894	42.90117	120.70847	520.12103	-163.79062	229.92380	656.36798	
408	4.070	55.61891	1496.55933	801.65521	-55.31796	1699.01221	598.17883	80.54876	1586.09265	616.30115	-66.78290	1582.39160	794.03149	23.76535	1445.92847	506.28699	-204.50139	1463.43237	742.05402	-54.23650	1334.52527	671.66650	-181.59367	1458.81384	556.25909	141.86832	1106.79858	440.89459	-316.77670	1145.60596	790.81287	204.86520	874.15955	451.54550	-284.85733	920.07458	883.83148	-16.54182	1049.42944	640.33850	-116.32891	1019.44452	724.63342	-221.84505	966.05359	474.88358	41.95541	475.74612	472.79178	-112.48311	592.81659	761.02606	43.88346	121.31906	519.07587	-139.56674	226.61298	672.59277	
409	4.080	61.60027	1496.70483	808.69641	-49.33015	1700.54248	606.38776	86.47675	1588.04150	622.49884	-61.87734	1582.98181	801.34528	31.27846	1447.35083	515.27679	-200.03606	1465.15833	746.79755	-48.71566	1335.61890	677.54437	-174.21933	1460.15295	561.07330	158.22185	1111.31067	454.26505	-314.60318	1147.61609	794.28931	225.43521	880.36511	469.02557	-285.12646	922.11548	887.71143	-12.16383	1050.69434	648.24164	-112.80489	1021.26282	732.13000	-215.84067	967.27106	480.21213	40.36592	476.23697	473.01230	-107.13299	596.68787	771.98523	44.14920	121.64322	517.03687	-116.39156	223.18320	689.57654	
410	4.090	66.32391	1497.01941	816.55273	-41.69344	1701.56030	613.91504	92.81241	1588.23352	631.17194	-56.19619	1582.88452	808.42224	38.66978	1448.21985	523.99683	-195.91872	1465.95837	751.89789	-44.17981	1337.02075	685.52399	-167.32410	1461.80579	566.53455	174.05785	1116.40991	468.27072	-312.41284	1149.95691	797.20142	245.75739	886.48169	486.54498	-285.30301	923.87891	891.00897	-5.87132	1051.37292	656.67865	-109.63896	1022.47357	737.95660	-209.80864	968.80505	485.74460	38.90998	477.00162	474.13577	-102.55502	600.09778	782.42444	44.98452	122.44886	515.19293	-94.51167	219.19148	707.72308	
411	4.100	71.71476	1496.08081	824.05457	-35.36311	1702.63611	622.05365	98.82200	1587.80396	638.20978	-50.68541	1582.73999	815.65015	46.10696	1448.85498	531.79956	-191.21355	1468.17090	757.14764	-38.61080	1337.94629	692.32678	-160.30037	1462.89160	571.35919	188.85410	1120.59558	483.60831	-311.05716	1152.03784	800.75067	265.90335	893.02893	504.74243	-285.92941	925.38440	894.19128	-1.48581	1051.29871	664.40942	-106.78442	1023.68549	744.75238	-203.54863	970.26727	491.04169	37.86279	477.81891	475.19608	-98.13124	602.98828	792.29706	45.34795	123.62633	513.72131	-71.75981	213.68546	726.48602	
412	4.110	76.56809	1495.70337	831.13092	-29.29034	1703.73706	629.96307	105.80357	1589.18359	646.71906	-45.15411	1582.25549	822.62537	52.72622	1449.47485	539.80878	-186.95947	1469.17200	761.72723	-34.13108	1338.10657	699.04669	-153.39723	1464.47522	576.86511	203.57524	1125.17114	496.33630	-309.18628	1154.52405	803.99988	285.63742	900.17090	522.06561	-286.35178	926.86066	897.27307	1.91258	1051.85693	671.44775	-103.10496	1025.23169	750.95490	-196.83864	971.38153	496.75629	35.63992	477.79993	477.30173	-94.14710	605.70447	801.47272	45.36226	123.70527	512.64722	-51.91607	209.99771	746.89233	
413	4.120	81.59570	1495.05359	837.55798	-22.61406	1704.38062	637.84314	111.48760	1589.59192	654.14984	-39.96537	1582.45251	830.10809	59.80906	1450.19739	547.32031	-182.08398	1471.02173	766.98950	-29.26869	1338.72498	706.12103	-146.40686	1465.09509	582.03772	217.56577	1129.81421	509.55362	-307.09286	1155.53943	806.76898	305.03409	906.74146	540.68268	-287.38507	927.98718	900.32538	5.75198	1051.82336	679.07416	-99.54232	1026.56396	757.74396	-190.86266	972.98694	501.93326	34.65213	477.65753	479.02933	-91.03857	607.46539	810.29053	45.46996	123.82832	510.80121	-31.30691	205.58862	767.77618	
414	4.130	86.10302	1494.48901	845.35913	-16.75258	1705.20361	645.81787	116.64290	1590.34595	661.95148	-34.82321	1582.13220	837.12738	66.50150	1450.29211	555.55457	-177.01170	1471.80591	771.62091	-25.46434	1338.81421	711.67145	-139.71059	1465.83020	587.44617	231.38745	1134.20935	523.42358	-305.39786	1157.61938	810.00580	323.29303	913.75836	556.20569	-287.99966	928.95496	903.18481	10.75558	1052.85791	686.39355	-96.15147	1027.79431	764.60132	-184.87227	974.25531	507.82813	34.59238	478.13824	481.65967	-88.22398	608.91583	819.32819	45.68895	123.74018	509.89432	-10.58570	201.31390	789.63837	
415	4.140	90.78043	1492.98108	852.59381	-10.75076	1705.77246	653.70300	123.02275	1589.98108	671.14069	-30.35322	1581.21326	843.83893	73.34138	1450.23962	563.74060	-172.99113	1472.21228	777.13660	-21.07380	1338.90466	717.94617	-132.97801	1466.60242	593.05933	243.70665	1138.27332	536.38177	-303.55606	1159.37500	813.51630	340.97546	921.27167	574.55054	-289.26923	929.81494	906.15649	15.12809	1052.83081	694.55371	-92.56256	1028.10913	771.30963	-178.96246	974.71869	514.06476	35.14018	479.33160	483.88358	-85.88647	608.59692	827.83746	45.33200	123.50272	509.44537	10.27885	197.64302	811.80750	
416	4.150	94.97742	1492.38342	859.84802	-5.10910	1706.30176	661.55078	128.37248	1591.22449	679.37701	-26.10337	1579.96289	850.77130	79.94292	1450.19006	571.75256	-167.74402	1473.53003	782.58734	-16.71914	1338.65137	723.99115	-126.34425	1466.99719	598.84448	256.12564	1142.46704	550.07629	-301.75845	1161.04541	816.15137	358.08234	928.91571	592.29846	-290.63202	930.76221	909.00354	19.58306	1053.53162	702.38885	-88.23255	1029.66797	778.21490	-173.18636	975.79541	520.40039	36.13683	479.42624	485.66147	-83.14960	608.14258	835.26764	45.11512	123.20618	509.40646	30.83549	194.99156	835.79150	
417	4.160	98.78673	1491.51550	866.39258	1.01691	1706.29541	669.49194	134.17177	1591.42957	687.37946	-22.65668	1579.30237	857.50232	86.07380	1449.82971	579.49353	-163.31303	1473.50281	787.96869	-11.72980	1339.14868	730.79395	-119.93428	1467.06897	604.61792	267.34424	1146.45898	563.70941	-299.79068	1162.37683	819.98639	374.91766	936.58649	608.75757	-291.46854	930.73138	911.41095	24.52172	1054.08325	708.68414	-83.27991	1030.10022	784.50238	-167.76750	975.80688	527.18036	37.32879	479.81201	489.24081	-79.02654	606.70959	841.39697	44.70438	122.86630	509.42545	51.14639	193.00340	859.61792	
418	4.170	102.30266	1490.22900	873.65137	6.55086	1706.47314	676.90240				-18.27460	1578.07422	864.01617	91.75336	1449.57446	586.93469	-157.49655	1475.47058	794.14850	-7.09965	1339.25378	737.81451	-113.60277	1466.87244	610.68304	277.84454	1150.32300	576.17920	-297.48172	1163.44678	823.02802	389.52863	944.43347	625.56976	-293.42749	931.23480	913.43219	28.82322	1053.77759	715.72345	-78.50460	1031.03345	792.21375	-162.73489	976.40253	534.08154	38.55332	480.36664	492.92215	-75.87489	605.24048	846.89380	43.84842	122.37082	508.75705	69.82777	193.84920	884.93512	
419	4.180	105.94598	1489.65857	880.92609	12.16323	1706.45239	684.12982				-14.86050	1577.16382	870.25256	97.93143	1449.40771	594.70221	-152.67000	1475.73108	799.68469	-2.04863	1338.70154	745.58752	-107.13685	1466.24353	616.20618	287.91760	1154.03821	589.24677	-296.32224	1164.83228	826.28589	404.07434	951.78186	640.39185	-294.85999	931.09930	916.42633	34.27738	1054.93164	722.82678	-73.04923	1031.10828	798.26331	-157.50404	976.04626	541.34454	41.27347	480.20145	498.19528	-72.40495	602.70947	850.88611	43.11897	122.33071	508.72067	88.29835	196.98138	909.11664	
420	4.190	109.57568	1488.86694	889.19000	17.24422	1706.39050	691.65100	150.25040	1591.94592	711.19574	-11.49620	1576.09607	876.92181	103.50569	1448.73718	602.14319	-147.87454	1475.44714	806.17480	3.07353	1338.03662	751.32794	-101.45950	1465.69653	622.71423	297.34958	1157.33301	601.88928	-293.51263	1164.82751	830.15137	418.07828	959.68988	655.59216	-296.34793	930.95276	918.45032	39.92681	1054.39563	730.15070	-67.16160	1031.56848	805.94165	-151.99538	975.48248	548.43915	43.52074	480.49799	502.73856	-69.44664	599.73065	854.12146	41.88000	122.02968	509.22223	104.71445	203.21674	931.91541	
421	4.200	112.42968	1487.84387	896.25775	23.13702	1705.70947	698.31702	155.25899	1592.04407	718.81110	-8.67606	1575.07556	883.30725	108.95035	1448.22595	609.46295	-142.77325	1475.02124	812.71967	7.76134	1338.06763	758.78851	-95.44095	1464.66016	628.69019	305.47919	1160.44653	613.71405	-291.30893	1165.72729	834.12854	430.80032	966.79999	671.58990	-297.74326	930.05676	921.27612	45.65771	1054.54004	737.06989	-60.53160	1031.61829	814.58240	-147.56114	974.85895	555.99622	46.43861	479.89114	506.38086	-66.03756	596.44385	857.14404	40.56461	121.95918	510.49966	119.72256	211.94484	955.15082	
422	4.210	116.63312	1487.65271	904.54077	27.60642	1705.50378	705.51239	160.62231	1591.39429	727.68329	-5.26904	1574.19287	889.64783	114.22917	1447.65674	616.79303	-138.51427	1474.72949	819.12524	13.05638	1337.26685	765.09674	-90.24876	1463.86523	635.55426	314.03857	1163.99255	626.38098	-288.50156	1166.01404	838.52069	442.99808	974.63611	686.92346	-298.47913	928.86877	923.63263	53.80917	1054.83374	744.11890	-53.68309	1030.43713	821.52307	-142.72543	973.87903	563.94635	47.56228	479.57886	512.99408	-63.60373	593.31042	860.44122	40.07246	121.91700	510.94452	132.26201	220.86327	975.67072	
423	4.220	119.19179	1487.19019	912.53851	32.07425	1704.79187	712.57727	165.60542	1591.51233	735.31824	-2.10511	1573.64160	895.84161	119.25883	1447.08704	623.10828	-133.65494	1472.91223	824.86658	18.03022	1336.73413	773.12616	-85.03545	1462.65698	642.12610	321.20132	1166.78357	638.21136	-285.95847	1165.69482	842.63336	454.16275	982.37079	701.42487	-299.55054	927.15259	925.49969	59.66550	1053.48206	750.33655	-47.13758	1030.61560	828.64624	-137.46901	972.22388	572.21185	50.85633	478.22540	518.77399	-61.98587	589.65643	864.45807	39.03421	121.57032	511.51804	142.99976	230.22015	994.92566	
424	4.230	122.59793	1487.17078	920.32300	37.52227	1703.89856	719.00970	169.49457	1590.99170	742.85199	0.96184	1572.90125	902.22559	124.00106	1446.63245	630.52325	-128.52829	1472.80310	832.30933	23.17164	1336.18958	780.79852	-79.80616	1461.32910	648.41333	328.38187	1169.52991	649.56903	-283.08411	1165.16809	847.88562	464.45740	989.26001	716.48090	-300.93930	925.77081	928.13782	65.82167	1051.96106	756.26526	-39.39390	1028.99146	835.41486	-132.52945	970.35706	580.48328	55.43996	477.99191	522.05835	-60.55328	585.61456	867.36884	37.95597	120.62378	512.85559	153.61459	239.58279	1013.54413	
